<?xml version="1.0" encoding="UTF-8" standalone="no"?>
<!-- Created with Inkscape (http://www.inkscape.org/) -->

<svg
   width="512"
   height="512"
   viewBox="0 0 135.46666 135.46667"
   version="1.1"
   id="svg1"
   inkscape:version="1.4.2 (f4327f4, 2025-05-13)"
   sodipodi:docname="MSSBL_TunnelEntrance.svg"
   inkscape:export-filename="MSSBL_TunnelEntrance.png"
   inkscape:export-xdpi="96"
   inkscape:export-ydpi="96"
   xmlns:inkscape="http://www.inkscape.org/namespaces/inkscape"
   xmlns:sodipodi="http://sodipodi.sourceforge.net/DTD/sodipodi-0.dtd"
   xmlns:xlink="http://www.w3.org/1999/xlink"
   xmlns="http://www.w3.org/2000/svg"
   xmlns:svg="http://www.w3.org/2000/svg"
   xmlns:rdf="http://www.w3.org/1999/02/22-rdf-syntax-ns#"
   xmlns:cc="http://creativecommons.org/ns#"
   xmlns:dc="http://purl.org/dc/elements/1.1/">
  <sodipodi:namedview
     id="namedview1"
     pagecolor="#ffffff"
     bordercolor="#000000"
     borderopacity="0.25"
     inkscape:showpageshadow="2"
     inkscape:pageopacity="0.0"
     inkscape:pagecheckerboard="0"
     inkscape:deskcolor="#d1d1d1"
     inkscape:document-units="mm"
     showguides="true"
     showgrid="true"
     inkscape:zoom="1.0467523"
     inkscape:cx="196.32152"
     inkscape:cy="89.323902"
     inkscape:window-width="2560"
     inkscape:window-height="1377"
     inkscape:window-x="2552"
     inkscape:window-y="-8"
     inkscape:window-maximized="1"
     inkscape:current-layer="layer1" />
  <defs
     id="defs1">
    <linearGradient
       id="linearGradient41"
       inkscape:collect="always">
      <stop
         style="stop-color:#856a30;stop-opacity:1;"
         offset="0"
         id="stop41" />
      <stop
         style="stop-color:#624a17;stop-opacity:1;"
         offset="1"
         id="stop42" />
    </linearGradient>
    <linearGradient
       id="linearGradient20"
       inkscape:collect="always">
      <stop
         style="stop-color:#38280f;stop-opacity:1;"
         offset="0"
         id="stop20" />
      <stop
         style="stop-color:#000000;stop-opacity:1;"
         offset="1"
         id="stop21" />
    </linearGradient>
    <inkscape:path-effect
       effect="simplify"
       id="path-effect20"
       is_visible="true"
       lpeversion="1.3"
       threshold="65.853659"
       steps="1"
       smooth_angles="360"
       helper_size="0"
       simplify_individual_paths="false"
       simplify_just_coalesce="false" />
    <linearGradient
       id="linearGradient9"
       inkscape:collect="always">
      <stop
         style="stop-color:#423119;stop-opacity:1;"
         offset="0"
         id="stop8" />
      <stop
         style="stop-color:#251c0e;stop-opacity:1;"
         offset="1"
         id="stop9" />
    </linearGradient>
    <radialGradient
       inkscape:collect="always"
       xlink:href="#linearGradient9"
       id="radialGradient8"
       cx="57.330953"
       cy="58.325544"
       fx="57.330953"
       fy="58.325544"
       r="2"
       gradientTransform="matrix(1,0,0,15.738038,0,-857.51873)"
       gradientUnits="userSpaceOnUse" />
    <radialGradient
       inkscape:collect="always"
       xlink:href="#linearGradient9"
       id="radialGradient9"
       gradientUnits="userSpaceOnUse"
       gradientTransform="matrix(1,0,0,15.706443,0,-855.73914)"
       cx="74.264282"
       cy="58.325542"
       fx="74.264282"
       fy="58.325542"
       r="2" />
    <radialGradient
       inkscape:collect="always"
       xlink:href="#linearGradient9"
       id="radialGradient11"
       cx="65.797615"
       cy="41.197845"
       fx="65.797615"
       fy="41.197845"
       r="10.466666"
       gradientTransform="matrix(1,0,0,0.19108282,0,33.325644)"
       gradientUnits="userSpaceOnUse" />
    <radialGradient
       inkscape:collect="always"
       xlink:href="#linearGradient9"
       id="radialGradient12"
       cx="65.797615"
       cy="58.325542"
       fx="65.797615"
       fy="58.325542"
       r="10.466666"
       gradientTransform="matrix(1,0,0,0.19108282,0,47.180534)"
       gradientUnits="userSpaceOnUse" />
    <radialGradient
       inkscape:collect="always"
       xlink:href="#linearGradient9"
       id="radialGradient13"
       cx="65.797615"
       cy="75.782585"
       fx="65.797615"
       fy="75.782585"
       r="10.466666"
       gradientTransform="matrix(1,0,0,0.19108282,0,61.301834)"
       gradientUnits="userSpaceOnUse" />
    <clipPath
       clipPathUnits="userSpaceOnUse"
       id="clipPath18">
      <path
         id="path18"
         style="fill:#000000;fill-opacity:1;stroke:#000000;stroke-width:1;stroke-linecap:round;stroke-linejoin:round"
         d="M 47.99697,17.634629 V 38.233887 A 32.797417,27.077972 0 0 0 32.88678,61.037147 32.797417,27.077972 0 0 0 65.683744,88.115082 32.797417,27.077972 0 0 0 98.481227,61.037147 32.797417,27.077972 0 0 0 81.741163,37.426186 V 17.634629 Z" />
    </clipPath>
    <clipPath
       clipPathUnits="userSpaceOnUse"
       id="clipPath19">
      <path
         id="path19"
         style="fill:#000000;fill-opacity:1;stroke:#000000;stroke-width:1;stroke-linecap:round;stroke-linejoin:round"
         d="M 47.99697,17.634629 V 38.233887 A 32.797417,27.077972 0 0 0 32.88678,61.037147 32.797417,27.077972 0 0 0 65.683744,88.115082 32.797417,27.077972 0 0 0 98.481227,61.037147 32.797417,27.077972 0 0 0 81.741163,37.426186 V 17.634629 Z" />
    </clipPath>
    <linearGradient
       inkscape:collect="always"
       xlink:href="#linearGradient20"
       id="linearGradient21"
       x1="65.668747"
       y1="43.521973"
       x2="65.684196"
       y2="88.11512"
       gradientUnits="userSpaceOnUse"
       gradientTransform="matrix(1.0120989,0,0,1.0293141,-0.9270583,-1.5246477)" />
    <radialGradient
       inkscape:collect="always"
       xlink:href="#linearGradient41"
       id="radialGradient42"
       cx="67.460297"
       cy="61.666168"
       fx="67.460297"
       fy="61.666168"
       r="44.870735"
       gradientTransform="matrix(1,0,0,0.91480422,0,5.2536978)"
       gradientUnits="userSpaceOnUse" />
  </defs>
  <g
     inkscape:label="Layer 1"
     inkscape:groupmode="layer"
     id="layer1">
    <ellipse
       style="fill:url(#linearGradient21);fill-opacity:1;stroke:none;stroke-width:1.02067;stroke-linecap:round;stroke-linejoin:round"
       id="path1"
       cx="65.551842"
       cy="61.301746"
       rx="33.194229"
       ry="27.871738" />
    <path
       style="fill:none;fill-opacity:1;stroke:url(#radialGradient11);stroke-width:4;stroke-linecap:round;stroke-linejoin:round;stroke-dasharray:none;stroke-opacity:1"
       d="M 57.330953,41.197844 H 74.264284"
       id="path4" />
    <path
       style="fill:none;fill-opacity:1;stroke:url(#radialGradient12);stroke-width:4;stroke-linecap:round;stroke-linejoin:round;stroke-dasharray:none;stroke-opacity:1"
       d="M 57.330953,58.325543 H 74.264284"
       id="path5" />
    <path
       style="fill:none;fill-opacity:1;stroke:url(#radialGradient13);stroke-width:4;stroke-linecap:round;stroke-linejoin:round;stroke-dasharray:none;stroke-opacity:1"
       d="M 74.264284,75.782584 H 57.330953"
       id="path6" />
    <path
       id="path20"
       style="fill:url(#radialGradient42);fill-opacity:1;stroke:none;stroke-width:4;stroke-linecap:round;stroke-linejoin:round;stroke-dasharray:none;stroke-opacity:1"
       d="m 74.290389,20.618904 c -4.19797,-0.04949 -7.957995,2.652894 -12.12019,3.273702 -4.174041,0.622576 -7.630304,2.145871 -12.352735,2.470134 -2.230192,0.153135 -2.548237,3.33423 -4.568196,3.624068 l -0.135909,0.603064 c -3.187303,0.07744 -10.211961,-2.276115 -8.734868,3.450435 1.281919,4.969878 -5.790799,2.826815 -6.011519,7.339087 -0.154138,3.151107 -1.008205,4.973678 -3.94808,6.9665 -3.4143,2.314416 -3.583169,7.21684 -3.21324,10.918713 0.480618,4.809534 -1.952899,10.158507 0.49351,14.479737 1.551522,2.740542 8.826199,2.67203 8.017598,5.882328 -0.965136,3.831775 -3.057934,9.184534 -0.21394,12.164632 2.343206,2.455344 4.110848,5.748567 7.627441,6.907589 5.173044,1.704967 11.122961,-0.180949 16.020211,2.108917 4.642526,2.17076 9.997161,2.07294 14.986682,1.69395 3.813174,-0.28964 4.181389,-2.51281 6.518465,-6.098851 2.370373,-3.637131 6.560343,-2.840543 9.918775,-1.578198 4.146878,1.5587 7.51898,-0.997046 10.385412,-4.382678 2.414993,-2.852423 1.440285,-7.95337 3.509344,-10.057268 2.82564,-2.873215 7.09702,-3.686139 9.98441,-6.428031 3.32493,-3.157391 1.45101,-8.202849 0.30747,-11.932088 -1.08527,-3.539217 -1.61357,-7.246234 -2.13372,-10.910962 -0.55057,-3.879091 0.96132,-8.251297 -1.5813,-11.630298 -2.15793,-2.867774 -5.92343,-4.212423 -8.725563,-6.618717 C 94.50171,29.585386 89.465483,28.244897 85.69176,24.861539 82.729018,22.205272 79.027272,21.0664 75.136332,20.666447 c -0.284006,-0.02919 -0.566078,-0.04424 -0.845943,-0.04754 z M 65.684196,33.959175 A 32.797417,27.077972 0 0 1 98.481677,61.037109 32.797417,27.077972 0 0 1 65.684196,88.115043 32.797417,27.077972 0 0 1 32.886715,61.037109 32.797417,27.077972 0 0 1 65.684196,33.959175 Z" />
    <path
       id="path20-1"
       style="fill:none;fill-opacity:1;stroke:#000000;stroke-width:4;stroke-linecap:round;stroke-linejoin:round;stroke-dasharray:none;stroke-opacity:1"
       d="m 74.290389,20.618904 c -4.19797,-0.04949 -7.957995,2.652894 -12.12019,3.273702 -4.174041,0.622576 -7.630304,2.145871 -12.352735,2.470134 -2.230192,0.153135 -2.548237,3.33423 -4.568196,3.624068 l -0.135909,0.603064 c -3.187303,0.07744 -10.211961,-2.276115 -8.734868,3.450435 1.281919,4.969878 -5.790799,2.826815 -6.011519,7.339087 -0.154138,3.151107 -1.008205,4.973678 -3.94808,6.9665 -3.4143,2.314416 -3.583169,7.21684 -3.21324,10.918713 0.480618,4.809534 -1.952899,10.158507 0.49351,14.479737 1.551522,2.740542 8.826199,2.67203 8.017598,5.882328 -0.965136,3.831775 -3.057934,9.184534 -0.21394,12.164632 2.343206,2.455344 4.110848,5.748567 7.627441,6.907589 5.173044,1.704967 11.122961,-0.180949 16.020211,2.108917 4.642526,2.17076 9.997161,2.07294 14.986682,1.69395 3.813174,-0.28964 4.181389,-2.51281 6.518465,-6.098851 2.370373,-3.637131 6.560343,-2.840543 9.918775,-1.578198 4.146878,1.5587 7.51898,-0.997046 10.385412,-4.382678 2.414993,-2.852423 1.440285,-7.95337 3.509344,-10.057268 2.82564,-2.873215 7.09702,-3.686139 9.98441,-6.428031 3.32493,-3.157391 1.45101,-8.202849 0.30747,-11.932088 -1.08527,-3.539217 -1.61357,-7.246234 -2.13372,-10.910962 -0.55057,-3.879091 0.96132,-8.251297 -1.5813,-11.630298 -2.15793,-2.867774 -5.92343,-4.212423 -8.725563,-6.618717 C 94.50171,29.585386 89.465483,28.244897 85.69176,24.861539 82.729018,22.205272 79.027272,21.0664 75.136332,20.666447 c -0.284006,-0.02919 -0.566078,-0.04424 -0.845943,-0.04754 z"
       sodipodi:nodetypes="sssccsssssssssssssssssssssss" />
    <path
       style="fill:none;fill-opacity:1;stroke:url(#radialGradient8);stroke-width:4.13947;stroke-linecap:round;stroke-linejoin:round;stroke-dasharray:none"
       d="M 57.330953,31.076689 V 89.745035"
       id="path3"
       clip-path="url(#clipPath18)" />
    <path
       style="fill:none;fill-opacity:1;stroke:url(#radialGradient9);stroke-width:4.13531;stroke-linecap:round;stroke-linejoin:round;stroke-dasharray:none"
       d="M 74.264285,31.072389 V 89.622953"
       id="path3-1"
       clip-path="url(#clipPath19)" />
  </g>
  <metadata
     id="metadata9">
    <rdf:RDF>
      <cc:Work
         rdf:about="">
        <dc:creator>
          <cc:Agent>
            <dc:title>Kieran David Evans</dc:title>
          </cc:Agent>
        </dc:creator>
        <dc:rights>
          <cc:Agent>
            <dc:title>CC BY-SA - https://creativecommons.org/licenses/by-sa/4.0/</dc:title>
          </cc:Agent>
        </dc:rights>
        <cc:license
           rdf:resource="http://creativecommons.org/licenses/by-sa/4.0/" />
      </cc:Work>
      <cc:License
         rdf:about="http://creativecommons.org/licenses/by-sa/4.0/">
        <cc:permits
           rdf:resource="http://creativecommons.org/ns#Reproduction" />
        <cc:permits
           rdf:resource="http://creativecommons.org/ns#Distribution" />
        <cc:requires
           rdf:resource="http://creativecommons.org/ns#Notice" />
        <cc:requires
           rdf:resource="http://creativecommons.org/ns#Attribution" />
        <cc:permits
           rdf:resource="http://creativecommons.org/ns#DerivativeWorks" />
        <cc:requires
           rdf:resource="http://creativecommons.org/ns#ShareAlike" />
      </cc:License>
    </rdf:RDF>
  </metadata>
</svg>
